<svg version="1.1" id="Layer_1" xmlns="http://www.w3.org/2000/svg" xmlns:xlink="http://www.w3.org/1999/xlink" x="0px" y="0px"
	 width="100%" viewBox="0 0 256 256" enable-background="new 0 0 256 256" xml:space="preserve">
<path fill="#000000" opacity="1.000000" stroke="none" 
	d="
M158.684814,27.678417 
	C161.802719,27.864281 164.429169,28.148882 166.702713,30.873505 
	C162.300827,35.335052 155.307343,35.456894 150.855789,40.271378 
	C153.484253,42.486927 156.584839,42.148510 159.343979,42.652828 
	C175.502930,45.606361 188.562012,57.652290 191.771072,72.784920 
	C192.045715,74.080002 192.460434,75.481339 192.230194,76.726051 
	C190.368561,86.790497 192.145142,96.828064 192.233490,106.875450 
	C192.253235,109.119064 191.573837,111.368828 190.553604,113.637245 
	C189.105179,107.687836 190.562775,101.379265 187.971115,95.386009 
	C184.805649,99.553093 181.924393,103.859848 177.336472,106.442802 
	C173.577530,108.559044 172.405594,107.893059 171.996033,103.556458 
	C171.672394,100.129639 172.342026,96.530640 170.267899,93.206306 
	C166.220230,93.577896 163.620956,95.447586 162.406693,99.497047 
	C161.344742,103.038506 159.257675,106.112022 156.697372,108.788597 
	C155.332062,110.215904 153.893845,111.778412 151.452240,110.755013 
	C149.669632,107.870346 152.527466,104.949448 151.243713,101.695656 
	C147.948059,104.777893 144.772888,108.034851 140.614105,109.908295 
	C139.134659,110.574753 137.590042,111.734200 135.927551,110.623520 
	C134.036957,109.360474 134.614319,107.307785 134.902435,105.580574 
	C135.627441,101.233963 136.472275,96.915520 136.476791,92.520309 
	C136.066132,92.264671 135.655472,92.009033 135.244812,91.753403 
	C133.065292,94.165550 131.010742,96.706985 128.678650,98.961296 
	C124.587189,102.916306 120.086067,106.358673 114.734894,108.486397 
	C108.406258,111.002769 106.314896,109.566315 106.560585,102.481819 
	C103.707466,104.281593 102.774567,110.659645 97.791862,106.259964 
	C91.508049,110.178154 93.281837,116.842812 92.453865,122.509674 
	C91.905441,126.263290 92.196060,130.164810 92.357162,133.989746 
	C92.522713,137.920151 90.314835,139.002197 87.032333,138.684708 
	C81.429527,138.142807 77.739616,134.696793 74.646805,130.295181 
	C71.159714,125.332458 69.480988,125.202744 65.368752,129.544495 
	C60.612446,134.566254 58.920811,140.436371 61.646793,146.991241 
	C64.718483,154.377426 70.605408,158.335663 78.374405,159.599075 
	C79.673637,159.810379 81.145866,159.978546 82.348854,159.586212 
	C87.847778,157.792801 90.001343,160.663269 92.455757,165.175491 
	C99.838394,178.747772 112.052101,186.008209 126.758209,189.617935 
	C130.526260,190.542831 134.675293,190.217941 138.207352,192.643112 
	C132.052597,196.968018 118.527664,192.714417 97.804680,180.045105 
	C98.909378,188.112000 100.742096,196.076035 96.039711,203.310867 
	C91.709221,209.973526 85.633209,214.607895 77.953598,218.693985 
	C78.207756,215.526810 79.952972,214.665756 81.280403,213.655151 
	C93.639343,204.245972 96.890602,191.660995 93.257385,177.224014 
	C92.118484,172.698486 89.100105,168.552551 86.487122,164.528229 
	C85.038956,162.297867 82.151886,163.408035 79.909714,163.366501 
	C66.451744,163.117020 56.203129,152.521729 56.664696,139.265213 
	C56.863495,133.555618 59.374065,128.994217 63.694309,125.480103 
	C66.028000,123.581863 66.605537,122.122490 64.769569,119.307137 
	C54.077297,102.910965 56.202412,86.483162 66.485176,71.108856 
	C79.371735,51.841446 97.713593,41.652416 121.255104,41.827770 
	C123.631721,41.845467 125.370583,41.133995 127.011909,39.503429 
	C135.647095,30.924881 146.093567,27.040228 158.684814,27.678417 
M167.733154,83.905365 
	C167.209427,83.192574 167.077988,81.918747 165.329529,82.555786 
	C165.829529,84.305077 164.497940,86.310112 166.177261,88.012939 
	C168.617661,87.662643 168.912338,86.363205 167.733154,83.905365 
z"/>
<path fill="#000000" opacity="1.000000" stroke="none" 
	d="
M189.627716,150.652390 
	C189.884232,143.184418 188.750519,136.283707 188.042282,129.343201 
	C187.648880,125.487801 186.858505,121.479729 189.089828,117.945679 
	C190.787460,117.880272 191.084732,118.846207 191.162567,119.871170 
	C191.904327,129.638306 193.087708,139.400116 193.243607,149.177811 
	C193.595703,171.259491 183.050323,185.835495 162.310089,192.918716 
	C156.815613,194.795197 155.606247,200.581482 160.190140,204.463837 
	C163.027527,206.866943 166.438141,208.593201 170.409607,211.150040 
	C165.195938,213.081589 161.576996,211.195068 158.139145,209.125778 
	C152.685669,205.843262 153.324509,200.564224 154.213715,195.416946 
	C152.001724,193.347809 149.138931,195.284225 146.778290,193.694000 
	C147.386200,191.797562 149.105820,191.864883 150.601654,191.518845 
	C156.270004,190.207550 161.926193,188.899261 167.338150,186.647537 
	C179.944687,181.402313 186.190796,171.413544 188.606720,158.519943 
	C189.065353,156.072266 189.286438,153.580093 189.627716,150.652390 
z"/>
<path fill="#000000" opacity="1.000000" stroke="none" 
	d="
M175.780182,129.165955 
	C171.997070,130.541931 168.240921,131.472397 165.807861,128.164093 
	C163.351425,124.824036 164.200623,120.883743 166.182419,117.368324 
	C168.099808,113.967125 170.844055,111.324852 174.274689,109.486443 
	C177.200760,107.918434 180.331741,107.467651 183.271271,109.324524 
	C185.287292,110.598015 187.192902,112.523407 185.459656,115.034973 
	C183.811554,117.423157 182.016479,115.641449 180.426514,114.418755 
	C179.644653,113.817490 178.821594,113.188148 177.227844,113.774239 
	C177.474625,116.809402 176.863113,120.441605 178.209320,123.071808 
	C179.961609,126.495422 178.196976,127.518333 175.780182,129.165955 
z"/>
<path fill="#000000" opacity="1.000000" stroke="none" 
	d="
M111.142380,128.337234 
	C107.329651,128.132874 106.527664,128.002747 108.560257,123.948280 
	C111.089790,118.902542 114.559593,119.778244 118.381256,119.640602 
	C125.137802,119.397240 131.549133,121.054665 137.879654,123.131248 
	C139.463882,123.650925 141.258621,124.347984 141.035873,126.430748 
	C140.787781,128.750381 138.777496,129.166687 136.919693,129.172043 
	C128.461273,129.196365 119.978584,129.806122 111.142380,128.337234 
z"/>
<path fill="#000000" opacity="1.000000" stroke="none" 
	d="
M153.540970,168.984100 
	C145.314743,169.475693 137.923569,167.928116 130.972366,164.407776 
	C128.437485,163.123993 126.077759,161.587387 127.275093,157.189468 
	C138.628265,163.139816 150.448639,165.546585 163.723663,164.592804 
	C160.848297,168.958817 156.990829,167.890198 153.540970,168.984100 
z"/>
<path fill="#000000" opacity="1.000000" stroke="none" 
	d="
M167.825409,140.502136 
	C168.724319,147.595062 163.204773,148.373459 158.973206,150.261093 
	C156.470657,151.377472 153.784332,152.458206 151.433319,149.246109 
	C153.224609,146.992676 155.835892,146.868332 158.049881,146.081726 
	C164.677551,143.726929 164.696503,143.696182 162.165207,137.375961 
	C160.748825,133.839508 159.437744,130.255402 158.231781,126.641861 
	C157.244888,123.684708 157.599533,120.818527 159.870865,118.014938 
	C160.786865,126.059547 165.040024,132.792694 167.825409,140.502136 
z"/>
<path fill="#000000" opacity="1.000000" stroke="none" 
	d="
M76.712234,136.806961 
	C76.606239,137.340881 76.569130,137.505142 76.505600,137.658432 
	C73.998840,143.707596 73.998520,143.707458 79.710571,148.449600 
	C76.536781,149.769379 73.968079,148.886551 71.891113,147.004456 
	C68.602066,144.024017 71.262238,140.857056 72.063904,138.010376 
	C71.911980,136.009537 69.479980,136.248718 69.078896,133.434021 
	C68.983452,133.463257 69.629715,133.220505 70.296669,133.068466 
	C73.395393,132.362061 76.006767,132.627762 76.712234,136.806961 
z"/>
</svg>